<svg xmlns="http://www.w3.org/2000/svg" version="1.0" preserveAspectRatio="xMidYMid meet" viewBox="129.4 339 736.48 281.89">

<g transform="translate(0.000000,1024.000000) scale(0.100000,-0.100000)" fill="#83E501" stroke="none">
<path d="M7455 6836 c-16 -11 -20 -30 -23 -109 -4 -94 -5 -96 -33 -107 -27 -12 -77 -60 -96 -94 -6 -11 -33 -18 -93 -23 -85 -8 -85 -8 -88 -38 -5 -42 19 -55 100 -55 l68 0 0 -55 0 -55 -125 -2 c-69 -1 -133 -2 -142 -2 -14 -1 -23 24 -48 124 -35 142 -46 163 -94 186 -38 18 -188 31 -243 20 -42 -8 -63 -43 -48 -80 15 -40 18 -41 170 -44 72 -2 80 -4 80 -21 0 -11 11 -66 24 -123 14 -57 57 -242 96 -413 118 -513 168 -712 190 -754 32 -63 75 -107 130 -130 49 -21 58 -22 531 -19 463 3 481 4 495 22 15 22 10 51 -14 79 -14 16 -50 17 -477 17 l-462 0 -33 23 c-35 23 -78 93 -65 105 4 4 237 8 519 8 503 2 514 2 562 23 58 26 97 61 130 117 25 43 181 673 191 772 4 42 2 57 -12 72 -17 18 -32 20 -197 20 l-178 0 0 55 0 55 103 0 c105 0 147 13 147 45 0 32 -42 45 -141 45 l-98 0 -23 43 c-16 28 -36 48 -64 62 -48 23 -54 39 -54 145 0 69 -16 100 -52 100 -30 0 -39 -28 -41 -124 l-1 -96 -53 0 -53 0 0 75 c0 88 -19 145 -49 145 -41 0 -51 -25 -51 -126 l0 -94 -55 0 -55 0 0 100 c0 88 -2 100 -19 110 -27 14 -37 13 -55 -6 -12 -12 -16 -37 -16 -110 l0 -95 -52 3 -53 3 -2 93 c-1 55 -7 99 -14 108 -15 18 -40 18 -64 0z m703 -341 c11 -10 12 -72 6 -339 -4 -213 -11 -331 -18 -340 -9 -11 -79 -14 -371 -17 l-360 -4 -3 339 c-2 303 -1 341 14 357 15 17 38 19 218 22 294 5 498 -2 514 -18z m-865 -407 c4 -62 7 -148 7 -190 0 -42 5 -89 11 -105 13 -36 54 -78 89 -93 26 -11 28 -16 34 -93 7 -88 16 -107 52 -107 42 0 54 24 54 111 l0 80 48 -4 47 -4 3 -78 c3 -85 12 -105 46 -105 38 0 46 19 46 108 l0 83 53 -3 52 -3 3 -80 c3 -83 12 -105 43 -105 41 0 59 35 59 113 l0 72 50 -3 50 -4 0 -77 c0 -79 9 -101 42 -101 39 0 58 35 58 110 l0 69 43 19 c24 11 55 35 68 53 24 34 24 36 21 242 l-3 207 131 0 c71 0 130 -2 130 -4 0 -1 -34 -149 -75 -326 -45 -191 -85 -340 -98 -362 -11 -22 -37 -49 -57 -61 -35 -22 -39 -22 -557 -25 l-523 -3 0 23 c0 12 -40 183 -90 379 -49 196 -90 359 -90 362 0 6 51 9 196 15 l51 2 6 -112z"/>
<path d="M7592 6403 l-72 -4 2 -242 3 -242 220 -3 c121 -2 239 0 263 3 l42 6 0 238 0 238 -67 6 c-67 7 -248 6 -391 0z"/>
<path d="M4210 5879 c-170 -54 -174 -57 -178 -101 -3 -32 1 -39 26 -52 20 -10 31 -26 36 -48 7 -36 6 -1155 -1 -1264 -5 -65 -7 -72 -34 -88 -43 -25 -54 -52 -35 -81 16 -24 17 -24 223 -27 127 -2 215 1 227 7 14 7 22 22 24 45 3 29 -2 38 -35 66 l-38 32 -5 762 c-5 739 -6 762 -24 776 -29 20 -48 18 -186 -27z"/>
<path d="M1332 5852 c-13 -2 -28 -14 -34 -27 -14 -31 10 -70 49 -80 61 -15 36 44 356 -825 256 -693 239 -653 274 -680 26 -20 37 -22 145 -18 102 3 120 6 138 24 12 12 74 172 156 405 258 733 336 951 355 997 12 28 40 65 70 90 50 44 61 76 37 100 -8 8 -61 12 -173 12 -112 0 -165 -4 -173 -12 -23 -23 -13 -59 28 -97 26 -24 40 -45 40 -62 0 -28 -65 -225 -193 -584 -47 -132 -104 -294 -127 -360 -22 -65 -46 -123 -53 -127 -18 -11 -27 -10 -27 5 0 11 -146 412 -311 856 -82 219 -86 258 -31 275 47 15 54 91 9 100 -28 6 -504 13 -535 8z"/>
<path d="M5874 5751 c-53 -33 -87 -86 -92 -145 -8 -101 44 -152 148 -144 95 7 150 64 150 157 0 90 -135 176 -206 132z"/>
<path d="M6711 5625 c-187 -72 -355 -248 -421 -441 -32 -91 -46 -257 -32 -367 23 -187 87 -313 222 -440 140 -132 257 -177 455 -178 132 0 211 16 284 57 24 13 45 23 46 22 1 -2 21 -32 45 -68 60 -91 97 -129 155 -156 59 -28 94 -30 159 -8 50 17 151 101 161 135 8 24 -20 60 -41 52 -18 -7 -82 15 -124 44 -19 13 -67 55 -107 94 l-72 71 44 64 c104 152 113 349 20 422 -89 70 -202 46 -246 -52 -22 -50 -24 -93 -4 -166 8 -30 15 -57 15 -59 0 -2 -18 17 -40 42 -58 66 -115 90 -196 85 -49 -3 -70 -9 -86 -25 l-21 -22 56 -61 c76 -84 178 -230 175 -249 -2 -9 -23 -26 -48 -39 -101 -52 -258 -6 -359 104 -90 99 -143 243 -156 425 -16 221 51 434 182 579 34 39 63 77 63 85 0 14 -47 75 -58 75 -4 -1 -36 -12 -71 -25z"/>
<path d="M3260 5364 c-194 -24 -276 -60 -389 -173 -124 -124 -171 -239 -171 -412 0 -170 48 -285 168 -408 131 -132 255 -183 452 -184 123 0 203 18 305 68 134 65 260 221 311 384 17 55 19 197 3 272 -40 193 -239 395 -431 438 -54 13 -198 21 -248 15z m159 -123 c70 -36 124 -120 161 -253 29 -102 29 -310 1 -420 -35 -134 -79 -200 -163 -242 -202 -101 -377 108 -378 449 0 121 26 239 76 342 65 137 183 185 303 124z"/>
<path d="M5865 5318 c-188 -52 -205 -72 -135 -153 l40 -46 0 -347 c0 -220 -4 -361 -11 -386 -6 -22 -24 -52 -40 -67 -35 -32 -37 -62 -7 -83 18 -13 56 -16 210 -16 215 0 238 5 238 56 0 26 -7 38 -32 55 -18 13 -36 28 -40 34 -4 5 -8 218 -8 471 0 444 -1 462 -20 486 -11 14 -28 28 -37 30 -10 3 -81 -13 -158 -34z"/>
<path d="M5366 5335 c-13 -7 -22 -22 -24 -42 -3 -26 3 -36 38 -64 36 -29 41 -38 37 -64 -6 -36 -220 -575 -226 -569 -5 5 -121 286 -193 466 -28 70 -48 135 -44 143 3 8 21 23 41 32 28 13 35 23 35 45 0 55 -22 59 -280 56 -230 -3 -232 -3 -251 -27 -31 -38 -24 -60 26 -82 25 -11 52 -30 60 -43 8 -12 78 -178 155 -369 203 -505 230 -566 253 -582 22 -15 149 -21 182 -9 22 9 26 16 195 434 207 511 224 547 269 566 19 8 39 20 43 27 12 19 9 63 -5 75 -17 14 -285 20 -311 7z"/>
<path d="M7980 4961 c-48 -25 -91 -89 -97 -144 -7 -61 1 -90 39 -133 107 -122 307 -60 325 100 7 58 -1 87 -34 127 -55 64 -163 88 -233 50z"/>
</g>
</svg>